<?xml version="1.0" encoding="utf-8"?>
<!-- Generator: Adobe Illustrator 16.0.0, SVG Export Plug-In . SVG Version: 6.00 Build 0)  -->
<!DOCTYPE svg PUBLIC "-//W3C//DTD SVG 1.1//EN" "http://www.w3.org/Graphics/SVG/1.1/DTD/svg11.dtd">
<svg version="1.1" id="Layer_1" xmlns="http://www.w3.org/2000/svg" xmlns:xlink="http://www.w3.org/1999/xlink" x="0px" y="0px"
	 width="510px" height="160px" viewBox="0 0 510 160" enable-background="new 0 0 510 160" xml:space="preserve">
<circle fill="#FFFFFF" cx="85" cy="80" r="55"/>
<circle fill="none" stroke="#F5F5F5" stroke-width="4" stroke-miterlimit="10" cx="85" cy="80" r="62"/>
<circle fill="none" stroke="#F5F5F5" stroke-width="4" stroke-miterlimit="10" cx="255" cy="80" r="62"/>
<circle fill="none" stroke="#F5F5F5" stroke-width="4" stroke-miterlimit="10" cx="425" cy="80" r="62"/>
<path fill="#EA7B58" d="M96.083,80.449c0.926-4.315,1.453-9.246,1.453-14.485c0-10.413-1.837-18.476-5.01-25.444
	c-1.988-4.366-4.65-10.75-7.259-10.75c-2.585,0-5.36,6.457-7.336,10.75c-3.205,6.959-4.93,14.968-4.93,25.444
	c0,5.007,0.48,9.734,1.332,13.909L65,92.896v21.334l12.798-13.332h1.068v2.666h12.268v-2.666h1.068L105,114.229V92.895
	L96.083,80.449z M85.267,76.364c-2.651,0-4.8-2.148-4.8-4.801c0-2.65,2.149-4.801,4.8-4.801c2.65,0,4.8,2.15,4.8,4.801
	C90.067,74.216,87.917,76.364,85.267,76.364z M85.267,60.897c-2.651,0-4.8-2.148-4.8-4.8c0-2.65,2.149-4.799,4.8-4.799
	c2.65,0,4.8,2.148,4.8,4.799C90.067,58.749,87.917,60.897,85.267,60.897z"/>
<circle fill="#FFFFFF" cx="255" cy="80" r="55"/>
<g>
	<path fill="#95B0A9" d="M284.25,92.625h-58.5L216,112.126h78L284.25,92.625z"/>
	<path fill="#A7C5BD" d="M284.25,43.875h-58.5V87.75h58.5V43.875z M279.376,82.875h-48.751V48.75h48.751V82.875z"/>
</g>
<circle fill="#FFFFFF" cx="425" cy="80" r="55"/>
<g>
	<path fill="#524757" d="M424.992,91.664c0-6.443-5.229-11.665-11.673-11.665c-6.442,0-11.663,5.222-11.663,11.665l0.009,0.008
		c-0.009,8.631-4.7,16.158-11.665,20.191l0.035,0.041c3.427,1.968,7.393,3.096,11.63,3.096c12.886,0,23.336-10.451,23.336-23.336
		H424.992z"/>
	<path fill="#433947" d="M457.438,47.563c-3.42-3.417-8.955-3.417-12.372,0l-24.942,24.933c5.777,2.059,10.321,6.606,12.372,12.383
		l24.943-24.943C460.854,56.52,460.854,50.98,457.438,47.563z"/>
</g>
</svg>
