<?xml version="1.0" encoding="utf-8"?>
<!-- Generator: Adobe Illustrator 16.0.0, SVG Export Plug-In . SVG Version: 6.00 Build 0)  -->
<!DOCTYPE svg PUBLIC "-//W3C//DTD SVG 1.1//EN" "http://www.w3.org/Graphics/SVG/1.1/DTD/svg11.dtd">
<svg version="1.1" id="Layer_1" xmlns="http://www.w3.org/2000/svg" xmlns:xlink="http://www.w3.org/1999/xlink" x="0px" y="0px"
	 width="150px" height="100px" viewBox="0 0 150 100" enable-background="new 0 0 150 100" xml:space="preserve">
<g>
	<path fill="#FFFFFF" d="M39.646,12.943c-1.232,0.725-2.592,1.249-4.041,1.535c-1.16-1.232-2.812-1.999-4.646-1.999
		c-3.51,0-6.358,2.835-6.358,6.323c0,0.495,0.059,0.979,0.166,1.441c-5.285-0.265-9.972-2.781-13.108-6.606
		c-0.55,0.931-0.862,2.019-0.862,3.179c0,2.191,1.126,4.128,2.829,5.26c-1.041-0.033-2.021-0.318-2.878-0.792v0.077
		c0,3.064,2.191,5.622,5.1,6.206c-0.531,0.14-1.095,0.222-1.674,0.222c-0.41,0-0.809-0.042-1.197-0.117
		c0.811,2.513,3.157,4.338,5.939,4.392c-2.176,1.691-4.919,2.703-7.898,2.703c-0.516,0-1.02-0.031-1.517-0.086
		c2.815,1.795,6.157,2.842,9.749,2.842c11.698,0,18.102-9.638,18.102-17.987l-0.025-0.821c1.247-0.888,2.322-2.002,3.177-3.269
		c-1.14,0.503-2.364,0.842-3.647,0.996C38.162,15.659,39.174,14.417,39.646,12.943z"/>
</g>
<g>
	<path fill="#FFFFFF" d="M60.549,26.368c0,1.356,0.124,2.59,0.378,3.688c0.255,1.102,0.603,2.059,1.054,2.866
		c0.453,0.817,1.024,1.529,1.722,2.147c0.696,0.615,1.442,1.117,2.26,1.504c0.808,0.396,1.733,0.715,2.772,0.958
		c1.045,0.245,2.111,0.415,3.195,0.519c1.084,0.094,2.28,0.143,3.582,0.143c1.307,0,2.508-0.049,3.592-0.143
		c1.09-0.104,2.152-0.271,3.199-0.519c1.047-0.243,1.979-0.563,2.799-0.958c0.815-0.387,1.575-0.889,2.271-1.504
		c0.701-0.618,1.278-1.33,1.729-2.147c0.459-0.81,0.813-1.766,1.062-2.866c0.259-1.1,0.388-2.332,0.388-3.688
		c0-2.425-0.816-4.523-2.439-6.293c0.089-0.233,0.173-0.501,0.242-0.804c0.078-0.296,0.143-0.722,0.205-1.272
		c0.066-0.554,0.043-1.192-0.07-1.915c-0.112-0.726-0.319-1.465-0.625-2.216l-0.215-0.042c-0.158-0.032-0.418-0.023-0.771,0.019
		c-0.357,0.044-0.773,0.134-1.25,0.264c-0.475,0.135-1.084,0.388-1.835,0.766c-0.75,0.376-1.537,0.849-2.362,1.416
		c-1.434-0.392-3.396-0.587-5.886-0.587c-2.485,0-4.442,0.195-5.869,0.587c-0.835-0.567-1.627-1.04-2.385-1.416
		c-0.761-0.378-1.365-0.631-1.817-0.766c-0.443-0.13-0.869-0.218-1.258-0.257c-0.39-0.037-0.634-0.049-0.734-0.032
		c-0.109,0.01-0.186,0.028-0.248,0.049c-0.307,0.751-0.512,1.49-0.623,2.216c-0.113,0.723-0.135,1.361-0.072,1.915
		c0.063,0.551,0.133,0.977,0.204,1.272c0.071,0.303,0.153,0.57,0.241,0.804C61.357,21.845,60.549,23.943,60.549,26.368z
		 M64.227,30.05c0-1.405,0.64-2.696,1.918-3.87c0.385-0.354,0.828-0.619,1.344-0.798c0.504-0.185,1.076-0.287,1.717-0.313
		c0.646-0.026,1.258-0.015,1.842,0.016c0.588,0.031,1.311,0.081,2.169,0.138c0.864,0.055,1.604,0.088,2.231,0.088
		c0.629,0,1.369-0.033,2.229-0.088c0.86-0.057,1.587-0.106,2.175-0.138c0.59-0.03,1.203-0.042,1.842-0.016
		c0.641,0.025,1.216,0.128,1.727,0.313c0.506,0.179,0.951,0.443,1.33,0.798c1.283,1.156,1.926,2.444,1.926,3.87
		c0,0.843-0.104,1.591-0.318,2.239c-0.205,0.646-0.476,1.197-0.809,1.638c-0.328,0.44-0.779,0.813-1.361,1.122
		c-0.584,0.307-1.147,0.545-1.699,0.713c-0.553,0.159-1.264,0.293-2.127,0.387c-0.869,0.093-1.641,0.147-2.323,0.166
		c-0.675,0.024-1.538,0.033-2.589,0.033c-1.043,0-1.904-0.009-2.588-0.033c-0.676-0.019-1.454-0.073-2.313-0.166
		c-0.871-0.094-1.577-0.228-2.13-0.387c-0.555-0.168-1.126-0.406-1.703-0.713c-0.578-0.311-1.039-0.682-1.367-1.122
		s-0.593-0.989-0.807-1.638C64.335,31.641,64.227,30.893,64.227,30.05z M79.295,29.754c0,1.555,0.842,2.813,1.873,2.813
		c1.039,0,1.878-1.258,1.878-2.813c0-1.549-0.839-2.813-1.878-2.813C80.137,26.941,79.295,28.205,79.295,29.754z M68.044,29.754
		c0,1.555,0.843,2.813,1.877,2.813c1.033,0,1.873-1.258,1.873-2.813c0-1.549-0.84-2.813-1.873-2.813
		C68.887,26.941,68.044,28.205,68.044,29.754z"/>
</g>
<g>
	<path fill="#FFFFFF" d="M111.858,20.147h6.229v18.71h-6.229V20.147z"/>
	<path fill="#FFFFFF" d="M138.534,21.857c-1.307-1.43-3.039-2.145-5.189-2.145c-0.794,0-1.515,0.098-2.163,0.293
		c-0.647,0.195-1.196,0.469-1.643,0.821c-0.445,0.353-0.804,0.679-1.066,0.98c-0.252,0.287-0.497,0.621-0.737,0.998v-2.66h-6.211
		l0.02,0.906c0.012,0.604,0.02,2.468,0.02,5.589c0,3.122-0.012,7.194-0.039,12.215h6.211V28.417c0-0.643,0.07-1.152,0.209-1.529
		c0.266-0.643,0.662-1.181,1.199-1.613c0.534-0.437,1.198-0.651,1.99-0.651c1.083,0,1.88,0.373,2.391,1.122
		c0.51,0.749,0.765,1.785,0.765,3.105v10.007h6.211V28.133C140.499,25.378,139.846,23.285,138.534,21.857z"/>
	<path fill="#FFFFFF" d="M115.01,11.143c-1.044,0-1.89,0.306-2.539,0.915c-0.647,0.611-0.971,1.383-0.971,2.313
		c0,0.919,0.313,1.688,0.944,2.303c0.627,0.618,1.459,0.926,2.49,0.926h0.038c1.06,0,1.911-0.308,2.56-0.926
		c0.646-0.615,0.966-1.384,0.953-2.303c-0.013-0.931-0.334-1.701-0.963-2.313C116.892,11.447,116.056,11.143,115.01,11.143z"/>
</g>
<g>
	<path fill="#E5DDCB" d="M39.646,62.943c-1.232,0.725-2.592,1.248-4.041,1.535c-1.16-1.232-2.812-2-4.646-2
		c-3.51,0-6.358,2.836-6.358,6.323c0,0.495,0.059,0.979,0.166,1.441c-5.285-0.265-9.972-2.781-13.108-6.606
		c-0.55,0.932-0.862,2.02-0.862,3.18c0,2.19,1.126,4.127,2.829,5.26c-1.041-0.033-2.021-0.318-2.878-0.792v0.077
		c0,3.063,2.191,5.621,5.1,6.205c-0.531,0.14-1.095,0.222-1.674,0.222c-0.41,0-0.809-0.042-1.197-0.117
		c0.811,2.513,3.157,4.338,5.939,4.392c-2.176,1.691-4.919,2.703-7.898,2.703c-0.516,0-1.02-0.031-1.517-0.086
		c2.815,1.795,6.157,2.842,9.749,2.842c11.698,0,18.102-9.638,18.102-17.987l-0.025-0.821c1.247-0.888,2.322-2.002,3.177-3.27
		c-1.14,0.504-2.364,0.843-3.647,0.996C38.162,65.659,39.174,64.417,39.646,62.943z"/>
</g>
<g>
	<path fill="#E5DDCB" d="M59.999,75.368c0,1.356,0.124,2.59,0.378,3.688c0.255,1.102,0.603,2.059,1.054,2.866
		c0.453,0.817,1.024,1.529,1.722,2.147c0.696,0.615,1.442,1.117,2.26,1.504c0.808,0.396,1.733,0.715,2.772,0.958
		c1.045,0.245,2.111,0.415,3.195,0.519c1.084,0.094,2.28,0.143,3.582,0.143c1.307,0,2.508-0.049,3.592-0.143
		c1.09-0.104,2.152-0.271,3.199-0.519c1.047-0.243,1.979-0.563,2.799-0.958c0.815-0.387,1.575-0.889,2.271-1.504
		c0.701-0.618,1.278-1.33,1.729-2.147c0.459-0.81,0.813-1.766,1.062-2.866c0.259-1.1,0.388-2.332,0.388-3.688
		c0-2.425-0.816-4.522-2.439-6.293c0.089-0.233,0.173-0.501,0.242-0.804c0.078-0.297,0.143-0.723,0.205-1.272
		c0.066-0.554,0.043-1.192-0.07-1.915c-0.112-0.727-0.319-1.465-0.625-2.216l-0.215-0.042c-0.158-0.032-0.418-0.023-0.771,0.02
		c-0.357,0.043-0.773,0.133-1.25,0.264c-0.475,0.135-1.084,0.388-1.835,0.766c-0.75,0.376-1.537,0.85-2.362,1.416
		c-1.434-0.393-3.396-0.587-5.886-0.587c-2.485,0-4.442,0.194-5.869,0.587c-0.835-0.566-1.627-1.04-2.385-1.416
		c-0.761-0.378-1.365-0.631-1.817-0.766c-0.443-0.131-0.869-0.219-1.258-0.258c-0.39-0.037-0.634-0.049-0.734-0.031
		c-0.109,0.01-0.186,0.027-0.248,0.049c-0.307,0.751-0.512,1.49-0.623,2.216c-0.113,0.724-0.135,1.36-0.072,1.915
		c0.063,0.551,0.133,0.977,0.204,1.271c0.071,0.304,0.153,0.57,0.241,0.805C60.808,70.846,59.999,72.943,59.999,75.368z
		 M63.677,79.05c0-1.405,0.64-2.696,1.918-3.87c0.385-0.354,0.828-0.619,1.344-0.798c0.504-0.185,1.076-0.286,1.717-0.313
		c0.646-0.025,1.258-0.014,1.842,0.017c0.588,0.031,1.311,0.081,2.169,0.138c0.864,0.055,1.604,0.088,2.231,0.088
		c0.629,0,1.369-0.033,2.229-0.088c0.86-0.057,1.587-0.105,2.175-0.138c0.59-0.03,1.203-0.042,1.842-0.017
		c0.641,0.025,1.216,0.129,1.727,0.313c0.506,0.179,0.951,0.443,1.33,0.798c1.283,1.156,1.926,2.444,1.926,3.87
		c0,0.843-0.104,1.591-0.318,2.239c-0.205,0.646-0.476,1.197-0.809,1.638c-0.328,0.44-0.779,0.813-1.361,1.122
		c-0.584,0.307-1.147,0.545-1.699,0.713c-0.553,0.159-1.264,0.293-2.127,0.387c-0.869,0.093-1.641,0.147-2.323,0.166
		c-0.675,0.024-1.538,0.033-2.589,0.033c-1.043,0-1.904-0.009-2.588-0.033c-0.676-0.019-1.454-0.073-2.313-0.166
		c-0.871-0.094-1.577-0.228-2.13-0.387c-0.555-0.168-1.126-0.406-1.703-0.713c-0.578-0.311-1.039-0.682-1.367-1.122
		s-0.593-0.989-0.807-1.638C63.785,80.641,63.677,79.893,63.677,79.05z M78.745,78.754c0,1.555,0.842,2.813,1.873,2.813
		c1.039,0,1.878-1.258,1.878-2.813c0-1.549-0.839-2.813-1.878-2.813C79.587,75.941,78.745,77.205,78.745,78.754z M67.494,78.754
		c0,1.555,0.843,2.813,1.877,2.813c1.033,0,1.873-1.258,1.873-2.813c0-1.549-0.84-2.813-1.873-2.813
		C68.337,75.941,67.494,77.205,67.494,78.754z"/>
</g>
<g>
	<path fill="#E5DDCB" d="M111.858,70.147h6.229v18.71h-6.229V70.147z"/>
	<path fill="#E5DDCB" d="M138.534,71.857c-1.307-1.43-3.039-2.145-5.189-2.145c-0.794,0-1.515,0.098-2.163,0.293
		c-0.647,0.195-1.196,0.469-1.643,0.821c-0.445,0.353-0.804,0.679-1.066,0.98c-0.252,0.287-0.497,0.621-0.737,0.998v-2.66h-6.211
		l0.02,0.906c0.012,0.604,0.02,2.468,0.02,5.589c0,3.122-0.012,7.194-0.039,12.215h6.211V78.417c0-0.643,0.07-1.152,0.209-1.529
		c0.266-0.643,0.662-1.181,1.199-1.613c0.534-0.437,1.198-0.651,1.99-0.651c1.083,0,1.88,0.373,2.391,1.122
		c0.51,0.749,0.765,1.785,0.765,3.105v10.007h6.211V78.133C140.499,75.378,139.846,73.285,138.534,71.857z"/>
	<path fill="#E5DDCB" d="M115.01,61.143c-1.044,0-1.89,0.306-2.539,0.915c-0.647,0.611-0.971,1.383-0.971,2.313
		c0,0.919,0.313,1.688,0.944,2.303c0.627,0.618,1.459,0.926,2.49,0.926h0.038c1.06,0,1.911-0.308,2.56-0.926
		c0.646-0.615,0.966-1.384,0.953-2.303c-0.013-0.931-0.334-1.701-0.963-2.313C116.892,61.447,116.056,61.143,115.01,61.143z"/>
</g>
</svg>
